Format : AVI
Format/Info : Audio Video Interleave
File size : 661 MiB
Duration : 1h 41mn
Overall bit rate : 914 Kbps
Writing application : MEncoder SVN-r29352(20090610-gcc4.3.3)
Writing library : MPlayer

Video
ID : 0
Format : AVC
Format/Info : Advanced Video Codec
Format profile : Baseline@L2.1
Format settings, CABAC : No
Format settings, ReFrames : 1 frame
Codec ID : avc1
Duration : 1h 41mn
Bit rate : 774 Kbps
Nominal bit rate : 768 Kbps
Width : 640 pixels
Height : 360 pixels
Display aspect ratio : 16:9
Frame rate : 25.000 fps
Resolution : 24 bits
Colorimetry : 4:2:0
Scan type : Progressive
Bits/(Pixel*Frame) : 0.134
Stream size : 559 MiB (85%)
Writing library : x264 core 67 r1163+17 7d945df

Audio
ID : 1
Format : MPEG Audio
Format version : Version 1
Format profile : Layer 3
Codec ID : 55
Codec ID/Hint : MP3
Duration : 1h 41mn
Bit rate mode : Constant
Bit rate : 128 Kbps
Channel(s) : 2 channels
Sampling rate : 44.1 KHz
Resolution : 16 bits
Stream size : 92.6 MiB (14%)
Alignment : Aligned on interleaves
Interleave, duration : 26 ms (0.65 video frame)
Interleave, preload duration : 522 ms
Writing library : LAME3.98

cast
Cuba Gooding Jr.
Austin Abrams
Danielle Nicolet
Neal McDonough

A reporter stumbles upon the journal of a murderer replete with plans to butcher specific people, and investigates on his own, finding that every trail leads to a 9-year-old orphan living in a group home
 
http://www.imdb.com/title/tt1519664/

screens
 
http://img249.imageshack.us/img249/9307/tickingclockh264viceavi.jpg 
http://img593.imageshack.us/img593/9307/tickingclockh264viceavi.jpg 
http://img802.imageshack.us/img802/9307/tickingclockh264viceavi.jpg 
http://img502.imageshack.us/img502/9307/tickingclockh264viceavi.jpg


